<svg width="14" height="13" viewBox="0 0 14 13" fill="none" xmlns="http://www.w3.org/2000/svg">
<path d="M7.14382 12.8543C7.03405 12.8558 6.92527 12.8342 6.82503 12.791C6.72478 12.7478 6.63547 12.6841 6.5633 12.6043C2.63441 8.27433 1.7118 7.29433 1.53557 7.02433C0.982237 6.34929 0.679311 5.51489 0.675149 4.65433C0.679562 3.92858 0.898208 3.21906 1.30549 2.60883C1.71277 1.9986 2.29183 1.51293 2.97488 1.20866C3.65793 0.904385 4.4167 0.794115 5.16236 0.890753C5.90802 0.987391 6.60971 1.28694 7.18529 1.75433C7.90289 1.17382 8.80927 0.855235 9.7458 0.854328C10.7888 0.856975 11.7881 1.2585 12.5246 1.97085C13.2611 2.6832 13.6747 3.64824 13.6747 4.65433C13.6891 5.53148 13.3596 6.38153 12.7521 7.03433L7.71398 12.5943C7.64295 12.6728 7.55531 12.7358 7.45697 12.7789C7.35862 12.822 7.25185 12.8443 7.14382 12.8443V12.8543Z" fill="#D22856"/>
</svg>
